<?xml version="1.0" standalone="no"?><!DOCTYPE svg PUBLIC "-//W3C//DTD SVG 1.1//EN" "http://www.w3.org/Graphics/SVG/1.1/DTD/svg11.dtd"><svg t="1712335781277" class="icon" viewBox="0 0 1024 1024" version="1.1" xmlns="http://www.w3.org/2000/svg" p-id="13515" xmlns:xlink="http://www.w3.org/1999/xlink" width="200" height="200"><path d="M616 832h-208a56 56 0 0 1 0-112h208a56 56 0 0 1 0 112z m-208-80a24 24 0 0 0 0 48h208a24 24 0 0 0 0-48z" p-id="13516"></path><path d="M600 912h-176a56 56 0 0 1 0-112h176a56 56 0 0 1 0 112z m-176-80a24 24 0 0 0 0 48h176a24 24 0 0 0 0-48zM618.08 752H405.92A53.92 53.92 0 0 1 352 698.08v-4.16A53.92 53.92 0 0 1 405.92 640h212.16A53.92 53.92 0 0 1 672 693.92v4.16A53.92 53.92 0 0 1 618.08 752z m-212.16-80A22.08 22.08 0 0 0 384 693.92v4.16A22.08 22.08 0 0 0 405.92 720h212.16A22.08 22.08 0 0 0 640 698.08v-4.16A22.08 22.08 0 0 0 618.08 672z" p-id="13517"></path><path d="M512 976a80 80 0 0 1-80-80 16 16 0 0 1 16-16h128a16 16 0 0 1 16 16 80 80 0 0 1-80 80z m-45.28-64a48 48 0 0 0 90.56 0zM640 672H384a16 16 0 0 1-16-16 144 144 0 0 0-49.28-106.56 285.44 285.44 0 0 1-92.48-249.6A288.96 288.96 0 0 1 478.88 49.92 285.12 285.12 0 0 1 704 121.28a288 288 0 0 1 0 429.92 136.32 136.32 0 0 0-48 100.96V656a16 16 0 0 1-16 16z m-240-32h224a170.08 170.08 0 0 1 57.6-112 256 256 0 1 0-341.76-1.44A178.24 178.24 0 0 1 400 640z" p-id="13518"></path><path d="M696.48 448a16 16 0 0 1-7.36-1.76 16 16 0 0 1-6.88-21.6 192 192 0 0 0-48-236.32 16 16 0 1 1 20.48-24.64 224 224 0 0 1 55.68 275.68 16 16 0 0 1-13.92 8.64zM592 160a14.56 14.56 0 0 1-6.24-1.28c-4.8-1.92-9.6-3.84-14.72-5.44a16 16 0 1 1 9.92-30.4c5.76 1.92 11.52 4 17.28 6.4A16 16 0 0 1 592 160zM512 672a12.48 12.48 0 0 1-4.16 0 16 16 0 0 1-11.2-19.52L539.04 496H464a16 16 0 0 1-12.64-6.24 16 16 0 0 1-2.72-13.92l48-176a16 16 0 1 1 30.72 8.32L484.96 464H560a16 16 0 0 1 12.64 6.24 16 16 0 0 1 2.72 13.92l-48 176A16 16 0 0 1 512 672z" p-id="13519"></path></svg>