<?xml version="1.0" standalone="no"?><!DOCTYPE svg PUBLIC "-//W3C//DTD SVG 1.1//EN" "http://www.w3.org/Graphics/SVG/1.1/DTD/svg11.dtd"><svg t="1713259684407" class="icon" viewBox="0 0 1024 1024" version="1.1" xmlns="http://www.w3.org/2000/svg" p-id="9993" xmlns:xlink="http://www.w3.org/1999/xlink" width="200" height="200"><path d="M900.99 914.874H123.01c-20.435 0-37-16.565-37-37V225.149c0-20.435 16.565-37 37-37h777.98c20.435 0 37 16.565 37 37v652.724c0 20.435-16.565 37.001-37 37.001z m-740.98-74h703.98V262.149H160.01v578.725z" fill="#231815" p-id="9994"></path><path d="M245.404 684.02c-20.435 0-37-16.565-37-37V475.344c0-20.435 16.565-37 37-37s37 16.565 37 37V647.02c0 20.435-16.565 37-37 37zM390.214 684.02c-20.435 0-37-16.565-37-37V475.344c0-20.435 16.565-37 37-37s37 16.565 37 37V647.02c0 20.435-16.566 37-37 37z" fill="#231815" p-id="9995"></path><path d="M390.232 684.021c-10.526 0-20.982-4.468-28.301-13.145L217.122 499.2c-13.176-15.62-11.193-38.963 4.426-52.138 15.619-13.175 38.963-11.194 52.139 4.426l144.81 171.677c13.176 15.62 11.193 38.963-4.426 52.138a36.862 36.862 0 0 1-23.839 8.718zM636.53 684.02H512.764c-20.435 0-37-16.565-37-37V475.344c0-20.435 16.565-37 37-37H636.53c20.435 0 37 16.565 37 37V647.02c0 20.435-16.565 37-37 37z m-86.766-74h49.767v-97.676h-49.767v97.676z" fill="#231815" p-id="9996"></path><path d="M780.869 684.02h-22.34c-20.435 0-37-16.565-37-37s16.565-37 37-37h22.34c20.435 0 37 16.565 37 37s-16.565 37-37 37z" fill="#231815" p-id="9997"></path><path d="M338.469 302.766c-20.435 0-37-16.566-37-37v-92.17c0-20.435 16.565-37 37-37s37 16.565 37 37v92.17c0 20.435-16.566 37-37 37zM685.529 302.766c-20.435 0-37-16.566-37-37v-92.17c0-20.435 16.565-37 37-37s37 16.565 37 37v92.17c0 20.435-16.565 37-37 37z" fill="#231815" p-id="9998"></path></svg>