<?xml version="1.0" standalone="no"?><!DOCTYPE svg PUBLIC "-//W3C//DTD SVG 1.1//EN" "http://www.w3.org/Graphics/SVG/1.1/DTD/svg11.dtd"><svg t="1713703632665" class="icon" viewBox="0 0 1024 1024" version="1.1" xmlns="http://www.w3.org/2000/svg" p-id="1530" xmlns:xlink="http://www.w3.org/1999/xlink" width="200" height="200"><path d="M902.246005 455.138968c0-216.304418-175.973874-392.272151-392.278291-392.272151S117.690446 238.83455 117.690446 455.138968c0 197.268876 146.396231 360.920096 336.238974 388.203486l0 32.082696L341.851808 875.42515c-21.60404 0-42.029232 20.425192-42.029232 42.029232s20.425192 42.029232 42.029232 42.029232l336.869331 0c22.829961 0 41.398876-18.568914 41.398876-41.392736 0-23.524786-19.140942-42.665729-42.665729-42.665729L566.007031 875.42515l0-32.082696C755.850797 816.058041 902.246005 652.407843 902.246005 455.138968zM677.454286 903.444297c8.079002 0 14.645558 6.566556 14.645558 14.645558 0 7.372921-6.000668 13.373589-13.379729 13.373589L341.851808 931.463444c-6.158257 0-14.010085-7.850805-14.010085-14.010085s7.850805-14.010085 14.010085-14.010085L677.454286 903.443273zM481.948567 875.42515l0-29.128411c9.263991 0.653893 18.58631 1.109264 28.019147 1.109264s18.755156-0.455371 28.019147-1.109264l0 29.128411L481.948567 875.42515zM509.967714 819.385832c-200.852494 0-364.259144-163.40051-364.259144-364.246865S309.11522 90.885963 509.967714 90.885963 874.226858 254.29159 874.226858 455.138968 710.821231 819.385832 509.967714 819.385832zM806.997688 438.396655c-0.384763-53.92619-27.826765-125.930107-79.528288-159.215188-78.897931-50.79078-152.081721-17.757432-189.632965 37.534871-12.743232 18.767436-23.518646 46.068222-30.41266 68.630077-9.298783 0.344854-18.119683 2.417049-26.151613 6.04774-6.449899-10.641361-12.743232-26.747177-9.071609-71.122851 0.222057-2.644223 0.5137-5.53404 0.828878-8.616238 3.216251-31.79617 9.205663-90.987271-44.848441-114.319675-26.793226-11.57564-59.745732-5.924943-92.77908 15.918551-44.982494 29.741371-90.339518 92.032066-90.0182 153.523559 0.490164 93.823875 68.133773 137.126101 134.948505 138.41649 0.805342 0.017396 1.610684 0.023536 2.434445 0.023536 23.571858 0 50.114374-6.304589 68.700685-11.744485 4.196579 6.380314 9.526981 11.856026 15.521508 16.555048-7.554046 11.657504-20.664645 26.466792-62.442144 42.805922-2.480494 0.975211-5.212722 1.979074-8.126075 3.058662-29.963429 11.102872-85.744873 31.761378-82.914408 90.566692 1.407046 29.163203 20.979824 56.266491 55.111179 76.312036 28.620851 16.799618 68.355831 28.311813 107.530039 28.311813 24.481577 0 48.759517-4.500501 69.949118-15.020088 84.047208-41.72531 93.171006-121.511471 64.928778-182.073802-10.279111-22.065552-29.706579-45.396933-42.892903-59.885925 6.088672-9.06547 9.795087-19.706831 11.090593-31.077809 12.393261 0.601704 28.603455 4.571109 63.428611 31.591509 2.095731 1.622964 4.354168 3.444449 6.765077 5.382591 17.844413 14.383592 46.728254 37.656645 79.726809 37.656645 13.023618 0 26.682709-3.619434 40.552601-12.836353C794.027282 508.673232 807.278073 477.980185 806.997688 438.396655zM439.919335 455.138968c0 4.174066 0.531096 8.206916 1.232061 12.18246-17.161868 4.944616-40.494273 10.338463-60.282968 9.853415-49.314149-0.945535-107.046015-30.470989-107.466594-110.548792-0.233314-44.76146 33.063023-100.648304 77.456093-130.004913 14.400988-9.532097 42.134633-23.933085 66.219167-13.56597 32.519648 14.044878 31.837102 48.584532 28.066219 85.780689-0.326435 3.263323-0.636496 6.321986-0.86981 9.123798-4.623297 55.910381 5.545296 76.329433 14.278191 89.977267C447.093734 420.412049 439.919335 436.902628 439.919335 455.138968zM509.967714 413.109736c23.174815 0 42.029232 18.8493 42.029232 42.029232 0 23.174815-18.854417 42.029232-42.029232 42.029232s-42.029232-18.854417-42.029232-42.029232C467.938482 431.958012 486.793922 413.109736 509.967714 413.109736zM585.631998 565.826929c20.839631 44.703131 19.724227 109.526509-51.999304 145.140635-40.079834 19.899212-104.932888 14.58723-150.826124-12.357446-14.885012-8.744151-40.050158-27.319206-41.310871-53.499471-1.704828-35.374672 29.613458-49.961902 64.654532-62.944588 3.088338-1.144056 5.977132-2.212388 8.603959-3.239787 53.003168-20.72809 68.379367-41.550325 77.42744-56.313563 5.715165 1.511423 11.604292 2.574638 17.786085 2.574638 14.08581 0 27.161616-4.267187 38.159088-11.452843C559.598065 526.436804 577.016783 547.334763 585.631998 565.826929zM754.198158 501.481436c-29.54899 19.596314-58.099233 0.151449-87.205131-23.296589-2.544963-2.054799-4.938476-3.980661-7.16212-5.709025-42.198078-32.735565-63.277162-37.096896-83.136465-37.528732-6.246261-20.576641-21.487384-37.155225-41.364083-44.930305 6.14086-19.281135 15.311731-42.286082 25.684986-57.55688 27.698852-40.809451 83.947947-73.089645 151.281495-29.717835 37.639249 24.230867 66.301032 82.627882 66.680678 135.847991C779.101337 455.856305 776.041652 486.981187 754.198158 501.481436z" p-id="1531"></path></svg>