<?xml version="1.0" standalone="no"?><!DOCTYPE svg PUBLIC "-//W3C//DTD SVG 1.1//EN" "http://www.w3.org/Graphics/SVG/1.1/DTD/svg11.dtd"><svg t="1712346278890" class="icon" viewBox="0 0 1024 1024" version="1.1" xmlns="http://www.w3.org/2000/svg" p-id="3213" xmlns:xlink="http://www.w3.org/1999/xlink" width="200" height="200"><path d="M192 517.392v-16a16 16 0 0 1 16-16h594.784a16 16 0 0 1 16 16v16a16 16 0 0 1-16 16H208a16 16 0 0 1-16-16z m32-101.04h-16a16 16 0 0 1-16-16V208a16 16 0 0 1 16-16h594.784a16 16 0 0 1 16 16v192.352a16 16 0 0 1-16 16h-16a16 16 0 0 1-16-16V240H240v160.352a16 16 0 0 1-16 16z m0 186.08a16 16 0 0 1 16 16v160.352h530.784V618.432a16 16 0 0 1 16-16h16a16 16 0 0 1 16 16v192.352a16 16 0 0 1-16 16H208a16 16 0 0 1-16-16V618.432a16 16 0 0 1 16-16h16z" fill="#000000" p-id="3214"></path></svg>