<?xml version="1.0" standalone="no"?><!DOCTYPE svg PUBLIC "-//W3C//DTD SVG 1.1//EN" "http://www.w3.org/Graphics/SVG/1.1/DTD/svg11.dtd"><svg t="1716266819690" class="icon" viewBox="0 0 1035 1024" version="1.1" xmlns="http://www.w3.org/2000/svg" p-id="2410" xmlns:xlink="http://www.w3.org/1999/xlink" width="202.1484375" height="200"><path d="M827.459516 271.056176C816.881934 125.400615 690.761143 10.014945 537.27367 10.014945c-121.754725 0-229.072176 72.00633-271.877626 180.719121-2.970725-0.101275-5.975209-0.157538-8.990945-0.157539C118.120088 190.610286 5.626374 303.115253 5.626374 441.389011S118.120088 692.156484 256.416352 692.156484c2.62189 0 5.221275-0.045011 7.809406-0.112528 0.720176 0.067516 1.462857 0.112527 2.216791 0.112528H828.202198c1.451604 0 2.880703-0.157538 4.264791-0.472616 110.389451-7.381802 196.36044-99.069187 196.36044-210.178813-0.011253-113.045099-89.504352-205.565187-201.367913-210.460132zM827.076923 651.804132c-0.708923 0.033758-1.406593 0.112527-2.115516 0.225055H269.43578a16.147692 16.147692 0 0 0-3.758417-0.191297c-3.083253 0.112527-6.155253 0.202549-9.272264 0.20255-116.16211 0-210.651429-94.500571-210.651429-210.662682s94.489319-210.651429 210.651429-210.651428c6.999209 0 13.930901 0.337582 20.761319 1.001494a20.074901 20.074901 0 0 0 21.008879-13.672088c33.173099-100.419516 129.27156-167.890989 239.109626-167.890989 138.285011 0 250.789978 107.992615 250.789978 241.000088 0 5.491341 2.250549 10.746374 6.222769 14.53855 3.994725 3.792176 9.418549 5.885187 14.831121 5.502593 3.004484-0.157538 5.986462-0.225055 9.024704-0.225055 94.027956 0 170.535385 76.496176 170.535384 170.524132 0 90.843429-70.98233 165.651692-161.611956 170.299077z m-596.09178 107.745055c-14.189714 16.991648-84.913231 104.20044-84.913231 153.296176 0 55.307253 44.999736 100.306989 100.306989 100.306989 55.307253 0 100.306989-44.999736 100.306989-100.306989 0-49.106989-70.723516-136.304527-84.901978-153.296176-7.651868-9.114725-23.158154-9.114725-30.798769 0z m15.393758 213.498373c-33.195604 0-60.179692-27.006593-60.179692-60.190945 0-21.537758 31.485187-70.802286 60.179692-108.285186 28.705758 37.460396 60.190945 86.71367 60.190945 108.285186a60.247209 60.247209 0 0 1-60.190945 60.190945z m245.411165-213.498373c-14.178462 16.991648-84.913231 104.20044-84.913231 153.296176 0 55.307253 45.010989 100.306989 100.306989 100.306989 55.307253 0 100.318242-44.999736 100.318242-100.306989 0-49.106989-70.723516-136.304527-84.913231-153.296176-7.640615-9.114725-23.158154-9.114725-30.798769 0z m15.393758 213.498373c-33.184352 0-60.179692-27.006593-60.179692-60.190945 0-21.537758 31.485187-70.802286 60.179692-108.285186 28.717011 37.460396 60.190945 86.71367 60.190945 108.285186a60.247209 60.247209 0 0 1-60.190945 60.190945z m245.422418-213.498373c-14.178462 16.991648-84.913231 104.20044-84.913231 153.296176 0 55.307253 45.010989 100.306989 100.306989 100.306989 55.307253 0 100.318242-44.999736 100.318242-100.306989 0-49.106989-70.723516-136.304527-84.913231-153.296176-7.640615-9.114725-23.158154-9.114725-30.798769 0z m15.393758 213.498373c-33.184352 0-60.179692-27.006593-60.179692-60.190945 0-21.537758 31.485187-70.802286 60.179692-108.285186 28.717011 37.460396 60.190945 86.71367 60.190945 108.285186a60.247209 60.247209 0 0 1-60.190945 60.190945z" fill="#205081" p-id="2411"></path></svg>