<?xml version="1.0" standalone="no"?><!DOCTYPE svg PUBLIC "-//W3C//DTD SVG 1.1//EN" "http://www.w3.org/Graphics/SVG/1.1/DTD/svg11.dtd"><svg t="1713441562879" class="icon" viewBox="0 0 1024 1024" version="1.1" xmlns="http://www.w3.org/2000/svg" p-id="11993" xmlns:xlink="http://www.w3.org/1999/xlink" width="200" height="200"><path d="M519.716405 68.543611V0L346.131937 101.183425l174.177919 99.106346V132.636337a380.698928 380.698928 0 0 1 261.711968 649.235584 32.046363 32.046363 0 1 0 45.399015 45.399015A445.08838 445.08838 0 0 0 519.716405 68.543611z m2.967256 824.600405H512.00154A380.995653 380.995653 0 0 1 241.981256 244.501884a32.046363 32.046363 0 0 0-45.399015-45.399015A445.08838 445.08838 0 0 0 512.00154 958.423645h10.385395v65.576355l174.17792-99.106346-172.991017-101.183425z" fill="#A6B3C9" p-id="11994"></path><path d="M393.311305 678.314691l285.74674-285.74674a33.529991 33.529991 0 1 0-47.476094-47.476094l-286.340191 285.450015a33.529991 33.529991 0 1 0 47.476094 47.476094z" fill="#A6B3C9" p-id="11995"></path><path d="M345.24176 392.567951L630.691775 678.314691a33.529991 33.529991 0 1 0 47.476094-47.476093L393.311305 345.091857a33.529991 33.529991 0 0 0-47.476094 47.476094z" fill="#A6B3C9" p-id="11996"></path></svg>