<?xml version="1.0" standalone="no"?><!DOCTYPE svg PUBLIC "-//W3C//DTD SVG 1.1//EN" "http://www.w3.org/Graphics/SVG/1.1/DTD/svg11.dtd"><svg t="1713259454683" class="icon" viewBox="0 0 1024 1024" version="1.1" xmlns="http://www.w3.org/2000/svg" p-id="7056" xmlns:xlink="http://www.w3.org/1999/xlink" width="200" height="200"><path d="M475.560229 172.617143c-184.568686 0-334.730971 150.162286-334.730972 334.716343s150.162286 334.716343 334.730972 334.716343 334.701714-150.162286 334.701714-334.716343S660.128914 172.617143 475.560229 172.617143z m0 610.9184c-152.561371 0-276.216686-123.626057-276.216686-276.202057 0-152.546743 123.655314-276.202057 276.216686-276.202057 152.561371 0 276.187429 123.655314 276.187428 276.202057 0.014629 152.561371-123.626057 276.202057-276.187428 276.202057z" fill="" p-id="7057"></path><path d="M565.379657 286.705371a14.526171 14.526171 0 0 0-19.0464 8.031086 14.613943 14.613943 0 0 0 8.031086 19.061029 208.1792 208.1792 0 0 1 130.106514 193.536 14.628571 14.628571 0 1 0 29.257143 0c0-97.309257-58.221714-183.9104-148.348343-220.628115zM475.560229 298.408229c11.132343 0 22.308571 0.892343 33.221485 2.647771a14.628571 14.628571 0 0 0 4.651886-28.891429 239.601371 239.601371 0 0 0-37.888-3.013485 14.628571 14.628571 0 1 0 0.014629 29.257143zM525.824 536.912457a57.782857 57.782857 0 0 0 8.309029-29.578971 58.631314 58.631314 0 0 0-58.5728-58.5728 58.660571 58.660571 0 0 0-58.587429 58.5728c0 10.181486 2.852571 19.631543 7.445943 27.984457l-103.467886 103.467886a14.613943 14.613943 0 1 0 20.6848 20.6848l102.736457-102.736458a57.973029 57.973029 0 0 0 31.188115 9.186743c10.825143 0 20.860343-3.159771 29.564342-8.309028l34.069943 34.055314a14.584686 14.584686 0 0 0 20.6848 0 14.613943 14.613943 0 0 0 0-20.6848l-34.055314-34.069943z m-50.263771-0.248686a29.257143 29.257143 0 0 1-20.743315-8.586971c-0.365714-0.468114-0.555886-1.038629-0.980114-1.492114-0.160914-0.160914-0.365714-0.2048-0.526629-0.351086a29.096229 29.096229 0 0 1-7.0656-18.900114 29.315657 29.315657 0 1 1 29.315658 29.330285zM856.9856 430.328686a29.257143 29.257143 0 0 0-29.257143 29.257143v87.771428a29.257143 29.257143 0 0 0 58.514286 0v-87.771428a29.257143 29.257143 0 0 0-29.257143-29.257143zM312.992914 190.010514c15.1552 5.5296 31.963429-6.904686 37.493029-22.089143l23.800686-71.621485h205.282742l23.917715 73.874285c4.227657 12.024686 15.550171 24.107886 27.604114 24.107886 3.232914 0 6.509714-0.541257 9.713371-1.682286 15.2576-5.368686 23.230171-22.469486 17.861486-37.697828l-30.793143-91.691886c-4.110629-11.702857-15.169829-25.439086-27.574857-25.439086h-246.491428c-12.302629 0-23.303314 13.4144-27.501715 24.9856l-30.793143 88.9856c-5.544229 15.213714 2.282057 32.753371 17.481143 38.268343zM640.321829 835.540114c-15.286857-5.090743-31.890286-1.448229-37.024915 13.897143l-24.107885 66.062629H374.769371l-24.078628-65.375086c-5.178514-15.286857-21.752686-19.338971-37.098057-14.145829a29.257143 29.257143 0 0 0-18.3296 37.098058l30.793143 86.776685c4.022857 11.893029 15.169829 14.160457 27.721142 14.160457h246.462172c12.5952 0 23.771429-2.311314 27.735771-14.262857l30.8224-87.946971c5.134629-15.316114-3.130514-31.144229-18.475885-36.264229z" fill="" p-id="7058"></path></svg>